<svg id="f0ec5a19-a30e-4c70-ae18-c003a615c7b1" data-name="hair_01" xmlns="http://www.w3.org/2000/svg" width="100" height="93" viewBox="0 0 100 93"><defs><style>.b68c5cd8-fb47-42c1-99f6-f0d3be41db7c{fill:#90492d;}</style></defs><polygon class="b68c5cd8-fb47-42c1-99f6-f0d3be41db7c" points="93.4 31.02 93.4 24.82 93.4 18.63 87.21 18.63 87.21 12.44 81.02 12.44 81.02 6.19 74.78 6.19 68.58 6.19 68.58 0 62.39 0 56.19 0 50 0 43.81 0 37.61 0 31.42 0 31.42 6.19 25.18 6.19 18.98 6.19 18.98 12.44 12.79 12.44 12.79 18.63 6.6 18.63 6.6 24.82 6.6 31.02 0.4 31.02 0.4 37.21 0.4 43.4 0.4 49.6 0.4 55.79 0.4 62.03 0.4 68.23 6.6 68.23 6.6 74.42 6.6 80.61 6.6 86.81 6.6 93 12.79 93 12.79 86.81 12.79 80.61 18.98 80.61 25.18 80.61 31.42 80.61 37.61 80.61 37.61 80 62.39 80 62.39 80.61 68.58 80.61 74.78 80.61 81.02 80.61 87.21 80.61 87.21 86.81 87.21 93 93.4 93 93.4 86.81 93.4 80.61 93.4 74.42 93.4 68.23 99.6 68.23 99.6 62.03 99.6 55.79 99.6 49.6 99.6 43.4 99.6 37.21 99.6 31.02 93.4 31.02"/></svg>