<svg id="a49163ca-c15c-490c-abc9-01f9fc2dd7b3" data-name="hair_02" xmlns="http://www.w3.org/2000/svg" width="100" height="93" viewBox="0 0 100 93"><defs><style>.a0f7d3e2-e9de-41e7-89fc-6de3635b1d42{fill:#5a007f;}</style></defs><polygon class="a0f7d3e2-e9de-41e7-89fc-6de3635b1d42" points="91.68 17.22 91.68 8.84 83.29 8.84 74.97 8.84 74.97 0.51 66.65 0.51 58.32 0.51 50 0.51 41.68 0.51 33.35 0.51 25.03 0.51 25.03 8.84 16.65 8.84 8.32 8.84 8.32 17.22 0 17.22 0 25.55 0 33.87 0 42.19 0 50.52 0 58.84 8.32 58.84 8.5 77.5 91.5 77.5 91.68 58.84 100 58.84 100 50.52 100 42.19 100 33.87 100 25.55 100 17.22 91.68 17.22"/></svg>