<svg id="fdef2e9a-16f3-4b5c-9424-d75d51fb9aeb" data-name="hair_03" xmlns="http://www.w3.org/2000/svg" width="100" height="93" viewBox="0 0 100 93"><defs><style>.bd3f12d3-ad7a-4421-bb4b-b86338cc4afb{fill:#2e3e8e;}</style></defs><polygon class="bd3f12d3-ad7a-4421-bb4b-b86338cc4afb" points="96 34.58 96 32.45 96 24.48 96 16.51 88.34 16.51 88.34 8.47 80.63 8.47 72.97 8.47 72.97 0.5 65.31 0.5 57.66 0.5 50 0.5 42.34 0.5 34.69 0.5 27.03 0.5 27.03 8.47 19.32 8.47 11.66 8.47 11.66 16.5 4 16.5 4 24.48 4 32.45 4 34.58 3.68 34.58 3.68 40.61 3.68 46.63 3.68 52.65 3.68 58.68 3.68 64.75 3.68 70.77 3.68 76.79 9.46 76.79 9.46 82.82 9.46 88.84 15.25 88.84 15.25 82.82 21.03 82.82 26.82 82.82 32.65 82.82 38.43 82.82 38.43 82.5 61.57 82.5 61.57 82.82 67.36 82.82 73.14 82.82 78.97 82.82 84.75 82.82 84.75 88.84 90.54 88.84 90.54 82.82 90.54 82.5 91 82.5 91 76.79 96.32 76.79 96.32 70.77 96.32 64.75 96.32 58.68 96.32 52.65 96.32 46.63 96.32 40.61 96.32 34.58 96 34.58"/></svg>