<svg id="edf62d1e-3d5a-47d6-be86-dadc8c9a79dd" data-name="hair_05" xmlns="http://www.w3.org/2000/svg" width="100" height="93" viewBox="0 0 100 93"><defs><style>.ff824eef-80c0-4c0c-9d0f-ea578c0ba41d{fill:#494543;}.b2727ac6-200c-4bed-bc3d-75e3c4d63325{fill:#211f1e;}.ed06d602-bb1d-4288-9e79-7bf87dd1a289{fill:#f2b655;}</style></defs><rect class="ff824eef-80c0-4c0c-9d0f-ea578c0ba41d" x="40" y="-0.5" width="10" height="34"/><rect class="ff824eef-80c0-4c0c-9d0f-ea578c0ba41d" x="20" y="6.5" width="10" height="34"/><rect class="ff824eef-80c0-4c0c-9d0f-ea578c0ba41d" x="7" y="40.5" width="10" height="34"/><rect class="ff824eef-80c0-4c0c-9d0f-ea578c0ba41d" x="80" y="17.5" width="10" height="34"/><rect class="ff824eef-80c0-4c0c-9d0f-ea578c0ba41d" x="61" y="53.5" width="10" height="34"/><rect class="ff824eef-80c0-4c0c-9d0f-ea578c0ba41d" x="27" y="53.5" width="10" height="34"/><rect class="b2727ac6-200c-4bed-bc3d-75e3c4d63325" x="30" y="-0.5" width="10" height="34"/><rect class="b2727ac6-200c-4bed-bc3d-75e3c4d63325" x="50" y="-0.5" width="10" height="34"/><rect class="b2727ac6-200c-4bed-bc3d-75e3c4d63325" x="70" y="3.5" width="10" height="82"/><rect class="b2727ac6-200c-4bed-bc3d-75e3c4d63325" x="10" y="3.5" width="10" height="37"/><rect class="b2727ac6-200c-4bed-bc3d-75e3c4d63325" x="17" y="47.5" width="10" height="37"/><rect class="b2727ac6-200c-4bed-bc3d-75e3c4d63325" x="80" y="28.5" width="10" height="43"/><rect class="ed06d602-bb1d-4288-9e79-7bf87dd1a289" x="77" y="71.5" width="10" height="10"/><rect class="ed06d602-bb1d-4288-9e79-7bf87dd1a289" x="70" y="85.5" width="10" height="6"/><rect class="ed06d602-bb1d-4288-9e79-7bf87dd1a289" x="7" y="72.5" width="10" height="10"/><rect class="ed06d602-bb1d-4288-9e79-7bf87dd1a289" x="17" y="84.5" width="10" height="7"/><rect class="ed06d602-bb1d-4288-9e79-7bf87dd1a289" x="27" y="82.5" width="10" height="5"/><rect class="ed06d602-bb1d-4288-9e79-7bf87dd1a289" x="60" y="83.5" width="10" height="5"/><rect class="ff824eef-80c0-4c0c-9d0f-ea578c0ba41d" x="60" y="6.5" width="10" height="27"/></svg>