<svg id="a82bcb3a-ef55-496e-8522-11891c688131" data-name="hair_04" xmlns="http://www.w3.org/2000/svg" width="100" height="93" viewBox="0 0 100 93"><defs><style>.a5aaf62c-29cb-4ffb-a198-bdaf0d562607{fill:#414042;}</style></defs><polygon class="a5aaf62c-29cb-4ffb-a198-bdaf0d562607" points="88.1 21.79 88.1 14.18 80.43 14.18 72.83 14.18 72.83 6.58 65.22 6.58 57.61 6.58 50 6.58 42.39 6.58 34.78 6.58 27.18 6.58 27.18 14.18 19.51 14.18 11.9 14.18 11.9 21.79 4.29 21.79 4.29 29.46 4.29 37.07 4.29 41.72 4.29 44.67 4.29 67.5 88.1 67.5 91 67.5 95.71 67.5 95.71 44.67 95.71 41.72 95.71 37.07 95.71 29.46 95.71 21.79 88.1 21.79"/></svg>