<svg id="e5dc4a74-1604-4e8d-845b-c8afc3bfcd34" data-name="accessory_01" xmlns="http://www.w3.org/2000/svg" width="100" height="93" viewBox="0 0 100 93"><polygon points="69.91 51.74 69.91 46.86 65.02 46.86 60.13 46.86 55.25 46.86 55.25 51.74 50.36 51.74 45.47 51.74 45.47 46.86 40.59 46.86 35.7 46.86 30.78 46.86 30.78 51.74 25.89 51.74 25.89 56.63 30.78 56.63 30.78 61.52 35.7 61.52 40.59 61.52 45.47 61.52 45.47 56.63 50.36 56.63 55.25 56.63 55.25 61.52 60.13 61.52 65.02 61.52 69.91 61.52 69.91 56.63 74.83 56.63 74.83 51.74 69.91 51.74"/></svg>