<svg id="e629d5d1-2a7b-4a0e-860d-6d2a0f15443d" data-name="accessory_04" xmlns="http://www.w3.org/2000/svg" width="100" height="93" viewBox="0 0 100 93"><defs><style>.fe9df28b-4dde-4022-be8f-92c3b8715fe1{fill:#fff;}.b34c04a9-c361-477b-93fa-f9f4497c6fe1{fill:#ade0ee;}.a80f802c-3aba-48a6-b861-69477948cdd4{fill:#00a4e4;}.f8e02b86-1462-4372-b7b4-a8bec6505a00{fill:#005984;}</style></defs><polygon class="fe9df28b-4dde-4022-be8f-92c3b8715fe1" points="50 22.67 45.11 22.67 45.11 27.56 50 27.56 54.89 27.56 54.89 22.67 50 22.67"/><path class="b34c04a9-c361-477b-93fa-f9f4497c6fe1" d="M54.89,17.75H40.23V32.44H59.77V17.75Zm0,9.81H45.11V22.67h9.78Z"/><polygon class="a80f802c-3aba-48a6-b861-69477948cdd4" points="74.47 32.44 69.55 32.44 64.66 32.44 59.77 32.44 54.89 32.44 50 32.44 45.11 32.44 40.23 32.44 35.34 32.44 30.42 32.44 25.53 32.44 20.64 32.44 20.64 37.33 25.53 37.33 25.53 42.22 30.42 42.22 35.34 42.22 40.23 42.22 45.11 42.22 50 42.22 54.89 42.22 59.77 42.22 64.66 42.22 69.55 42.22 74.47 42.22 74.47 37.33 79.36 37.33 79.36 32.44 74.47 32.44"/><polygon class="f8e02b86-1462-4372-b7b4-a8bec6505a00" points="74.47 17.75 74.47 12.86 69.55 12.86 64.66 12.86 64.66 7.97 59.77 7.97 54.89 7.97 50 7.97 45.11 7.97 40.23 7.97 35.34 7.97 35.34 12.86 30.42 12.86 25.53 12.86 25.53 17.75 20.64 17.75 20.64 22.67 20.64 27.56 20.64 32.44 25.53 32.44 30.42 32.44 35.34 32.44 40.23 32.44 40.23 27.56 40.23 22.67 40.23 17.75 45.11 17.75 50 17.75 54.89 17.75 59.77 17.75 59.77 22.67 59.77 27.56 59.77 32.44 64.66 32.44 69.55 32.44 74.47 32.44 79.36 32.44 79.36 27.56 79.36 22.67 79.36 17.75 74.47 17.75"/></svg>