<svg id="b1a77695-9cc2-4d52-84c5-56e3f7410ea2" data-name="accessory_03" xmlns="http://www.w3.org/2000/svg" width="100" height="93" viewBox="0 0 100 93"><defs><style>.a0001698-5d2f-4e4c-b7f9-fafdbb02f198{fill:#ed1849;}.f39ae62f-9b07-468f-acc0-a8ec14a7edad{fill:#fff;}</style></defs><polygon class="a0001698-5d2f-4e4c-b7f9-fafdbb02f198" points="73.83 25.61 68.91 25.61 64.02 25.61 59.13 25.61 54.25 25.61 49.36 25.61 44.47 25.61 39.59 25.61 34.7 25.61 29.78 25.61 24.89 25.61 20 25.61 20 30.5 20 35.39 24.89 35.39 29.78 35.39 34.7 35.39 39.59 35.39 44.47 35.39 49.36 35.39 54.25 35.39 59.13 35.39 64.02 35.39 68.91 35.39 73.83 35.39 78.72 35.39 78.72 30.5 78.72 25.61 73.83 25.61"/><rect class="f39ae62f-9b07-468f-acc0-a8ec14a7edad" x="23.33" y="27.14" width="6.73" height="6.73" transform="translate(-13.75 27.81) rotate(-45)"/><rect class="f39ae62f-9b07-468f-acc0-a8ec14a7edad" x="34.58" y="27.14" width="6.73" height="6.73" transform="translate(-10.45 35.77) rotate(-45)"/><rect class="f39ae62f-9b07-468f-acc0-a8ec14a7edad" x="45.83" y="27.14" width="6.73" height="6.73" transform="translate(-7.16 43.72) rotate(-45)"/><rect class="f39ae62f-9b07-468f-acc0-a8ec14a7edad" x="57.08" y="27.14" width="6.73" height="6.73" transform="translate(-3.86 51.68) rotate(-45)"/><rect class="f39ae62f-9b07-468f-acc0-a8ec14a7edad" x="68.33" y="27.14" width="6.73" height="6.73" transform="translate(-0.57 59.63) rotate(-45)"/></svg>